<svg width="691" height="678" viewBox="0 0 691 678" fill="none" xmlns="http://www.w3.org/2000/svg">
<path d="M24.2264 365.675C-4.07729 307.15 -10.2236 223.565 25.8688 148.642C61.9612 73.7203 141.419 7.18505 217.335 1.05847C293.252 -5.0681 366.058 48.897 439.241 78.9112C512.424 108.925 585.72 114.63 628.912 151.775C672.367 189.278 685.716 258.22 689.652 335.167C693.851 412.472 688.637 497.783 640.187 553.138C592.169 608.176 501.179 633.617 418.492 654.07C335.804 674.522 261.251 690.661 218.201 662.772C175.415 635.24 163.438 563.64 132.914 511.148C102.127 458.298 52.0981 424.516 24.2264 365.675Z" fill="url(#paint0_linear_9_105)"/>
<defs>
<linearGradient id="paint0_linear_9_105" x1="722.5" y1="581" x2="-42.9999" y2="70.4999" gradientUnits="userSpaceOnUse">
<stop stop-color="#73E0A9"/>
<stop offset="1" stop-color="#5B68DF"/>
</linearGradient>
</defs>
</svg>
