<svg width="1978" height="1114" viewBox="0 0 1978 1114" fill="none" xmlns="http://www.w3.org/2000/svg">
<path opacity="0.1" d="M73.8796 891.569C59.201 861.576 56.073 818.41 74.9166 779.316C93.7602 740.223 135.162 705.049 174.67 701.149C214.178 697.25 252.017 724.456 290.073 739.272C328.128 754.089 366.263 756.333 388.706 775.126C411.286 794.102 418.175 829.626 420.158 869.381C422.278 909.319 419.493 953.487 394.236 982.581C369.204 1011.51 321.836 1025.54 278.792 1036.91C235.749 1048.29 196.941 1057.35 174.564 1043.34C152.323 1029.52 146.152 992.605 130.313 965.753C114.337 938.719 88.333 921.731 73.8796 891.569Z" fill="url(#paint0_linear_7_107)"/>
<path opacity="0.15" d="M893.956 588.848C865.995 578.93 837.192 555.458 824.882 523.121C812.573 490.785 817.035 449.195 839.722 426.737C862.408 404.279 903.357 400.74 936.747 389.895C970.137 379.05 995.767 360.862 1021.71 360.306C1047.84 359.786 1074.29 376.898 1100.25 398.974C1126.4 421.086 1152.07 448.163 1154.09 477.97C1156.15 507.564 1134.76 539.925 1114.47 568.53C1094.18 597.136 1075.15 622.236 1052.23 625.537C1029.5 628.875 1002.65 610.59 975.905 603.09C948.958 595.554 921.878 598.978 893.956 588.848Z" fill="url(#paint1_linear_7_107)"/>
<path opacity="0.1" d="M1170.9 955.646C1134.93 943.148 1097.76 913.912 1081.67 873.886C1065.58 833.86 1070.93 782.566 1099.83 755.054C1128.73 727.542 1181.23 723.55 1223.98 710.469C1266.72 697.389 1299.43 675.175 1332.71 674.726C1366.24 674.324 1400.33 695.687 1433.83 723.174C1467.59 750.707 1500.77 784.362 1503.64 821.171C1506.55 857.718 1479.41 897.466 1453.64 932.588C1427.87 967.71 1403.68 998.516 1374.3 1002.38C1345.17 1006.29 1310.55 983.478 1276.17 973.976C1241.53 964.427 1206.81 968.405 1170.9 955.646Z" fill="url(#paint2_linear_7_107)"/>
<path d="M510.082 58.5375C560.406 53.6239 622.026 69.4487 664.814 111.357C707.602 153.266 731.418 222.074 713.089 274.125C694.761 326.176 634.384 361.834 591.025 403.45C547.665 445.066 521.658 492.552 482.171 512.483C442.349 532.503 389.048 524.968 332.837 509.252C276.291 493.626 216.836 469.819 191.739 424.339C166.74 379.223 175.764 312.523 185.873 252.545C195.981 192.568 206.741 139.038 239.566 116.997C272.057 95.0449 326.849 104.128 373.523 96.2969C420.532 88.376 459.659 63.0876 510.082 58.5375Z" fill="url(#paint3_linear_7_107)"/>
<path d="M1336.47 700.021C1314.63 654.183 1310.74 588.305 1340.39 528.754C1370.04 469.204 1434.14 415.751 1494.68 410.005C1555.23 404.259 1612.58 445.965 1670.52 468.769C1728.46 491.572 1786.78 495.193 1820.74 523.983C1854.91 553.052 1864.71 607.29 1866.92 667.957C1869.34 728.904 1864.16 796.28 1824.9 840.54C1785.99 884.544 1713.2 905.711 1647.08 922.842C1580.97 939.973 1521.38 953.602 1487.43 932.114C1453.67 910.904 1444.99 854.552 1421.31 813.501C1397.42 772.17 1357.97 746.115 1336.47 700.021Z" fill="url(#paint4_linear_7_107)"/>
<defs>
<linearGradient id="paint0_linear_7_107" x1="492.666" y1="911.746" x2="269.639" y2="613" gradientUnits="userSpaceOnUse">
<stop stop-color="#73E0A9"/>
<stop offset="1" stop-color="#5B68DF"/>
</linearGradient>
<linearGradient id="paint1_linear_7_107" x1="1172.65" y1="386.52" x2="845.319" y2="327" gradientUnits="userSpaceOnUse">
<stop stop-color="#73E0A9"/>
<stop offset="1" stop-color="#5B68DF"/>
</linearGradient>
<linearGradient id="paint2_linear_7_107" x1="1526.61" y1="708.465" x2="1106.1" y2="632" gradientUnits="userSpaceOnUse">
<stop stop-color="#73E0A9"/>
<stop offset="1" stop-color="#5B68DF"/>
</linearGradient>
<linearGradient id="paint3_linear_7_107" x1="230.661" y1="582.06" x2="778.054" y2="435.386" gradientUnits="userSpaceOnUse">
<stop stop-color="#73E0A9"/>
<stop offset="1" stop-color="#5B68DF"/>
</linearGradient>
<linearGradient id="paint4_linear_7_107" x1="1977.02" y1="732.971" x2="1641.86" y2="276" gradientUnits="userSpaceOnUse">
<stop stop-color="#73E0A9"/>
<stop offset="1" stop-color="#5B68DF"/>
</linearGradient>
</defs>
</svg>
