<svg width="45" height="45" viewBox="0 0 45 45" fill="none" xmlns="http://www.w3.org/2000/svg">
<rect width="45" height="45" rx="8" fill="url(#paint0_linear_10_111)"/>
<path fill-rule="evenodd" clip-rule="evenodd" d="M13.25 18C13.25 15.3766 15.3766 13.25 18 13.25H28C30.6234 13.25 32.75 15.3766 32.75 18V28C32.75 30.6234 30.6234 32.75 28 32.75H18C15.3766 32.75 13.25 30.6234 13.25 28V18ZM18 14.75C16.2051 14.75 14.75 16.2051 14.75 18V28C14.75 29.7949 16.2051 31.25 18 31.25H28C29.7949 31.25 31.25 29.7949 31.25 28V18C31.25 16.2051 29.7949 14.75 28 14.75H18Z" fill="white"/>
<path fill-rule="evenodd" clip-rule="evenodd" d="M18.25 23C18.25 20.3766 20.3766 18.25 23 18.25C25.6234 18.25 27.75 20.3766 27.75 23C27.75 25.6234 25.6234 27.75 23 27.75C20.3766 27.75 18.25 25.6234 18.25 23ZM23 19.75C21.2051 19.75 19.75 21.2051 19.75 23C19.75 24.7949 21.2051 26.25 23 26.25C24.7949 26.25 26.25 24.7949 26.25 23C26.25 21.2051 24.7949 19.75 23 19.75Z" fill="white"/>
<path d="M28.5 18.5C29.0523 18.5 29.5 18.0523 29.5 17.5C29.5 16.9477 29.0523 16.5 28.5 16.5C27.9477 16.5 27.5 16.9477 27.5 17.5C27.5 18.0523 27.9477 18.5 28.5 18.5Z" fill="white"/>
<defs>
<linearGradient id="paint0_linear_10_111" x1="0" y1="45" x2="45" y2="45" gradientUnits="userSpaceOnUse">
<stop stop-color="#73E0A9"/>
<stop offset="1" stop-color="#5B68DF"/>
</linearGradient>
</defs>
</svg>
