<svg width="45" height="45" viewBox="0 0 45 45" fill="none" xmlns="http://www.w3.org/2000/svg">
<rect width="45" height="45" rx="8" fill="url(#paint0_linear_10_123)"/>
<path d="M16.5317 16.2072C19.3033 16.0691 21.4591 16 22.9989 16C24.5389 16 26.6954 16.0691 29.4684 16.2073C30.9695 16.2821 32.1835 17.4559 32.3087 18.9536C32.4355 20.4706 32.4989 21.8067 32.4989 22.9619C32.4989 24.1313 32.434 25.486 32.304 27.0261C32.1792 28.5052 30.9916 29.6706 29.5104 29.7675C27.1397 29.9225 24.9692 30 22.9989 30C21.0289 30 18.8592 29.9225 16.4898 29.7675C15.0091 29.6707 13.8217 28.506 13.6963 27.0275C13.5647 25.4759 13.4989 24.1207 13.4989 22.9619C13.4989 21.817 13.5631 20.4805 13.6916 18.9522C13.8174 17.4551 15.0312 16.282 16.5317 16.2072Z" stroke="white" stroke-width="1.5" stroke-linejoin="round"/>
<path d="M21.5 20.8046V25.203C21.5 25.4397 21.6919 25.6316 21.9285 25.6316C22.0126 25.6316 22.0948 25.6069 22.1649 25.5605L25.4637 23.3803C25.6612 23.2498 25.7154 22.9839 25.5849 22.7864C25.5537 22.7392 25.5135 22.6986 25.4665 22.6671L22.1677 20.4489C21.9713 20.3169 21.705 20.369 21.5729 20.5655C21.5254 20.6362 21.5 20.7194 21.5 20.8046Z" stroke="white" stroke-width="1.5" stroke-linejoin="round"/>
<defs>
<linearGradient id="paint0_linear_10_123" x1="0" y1="45" x2="45" y2="45" gradientUnits="userSpaceOnUse">
<stop stop-color="#73E0A9"/>
<stop offset="1" stop-color="#5B68DF"/>
</linearGradient>
</defs>
</svg>
