<svg width="45" height="45" viewBox="0 0 45 45" fill="none" xmlns="http://www.w3.org/2000/svg">
<rect width="45" height="45" rx="8" fill="url(#paint0_linear_10_117)"/>
<path d="M31.7097 14.6545C31.7097 14.6545 33.6523 13.897 33.4904 15.7366C33.4365 16.4942 32.9508 19.1454 32.573 22.0131L31.278 30.5079C31.278 30.5079 31.17 31.7524 30.1987 31.9688C29.2273 32.1852 27.7704 31.2113 27.5005 30.9949C27.2847 30.8326 23.4534 28.3977 22.1043 27.2074C21.7265 26.8827 21.2948 26.2335 22.1582 25.476L27.8244 20.0653C28.4719 19.416 29.1194 17.9009 26.4213 19.7406L18.8666 24.8808C18.8666 24.8808 18.0032 25.4219 16.3843 24.9349L12.8767 23.8527C12.8767 23.8527 11.5816 23.0411 13.7941 22.2295C19.1904 19.6864 25.8278 17.0893 31.7097 14.6545Z" fill="white"/>
<defs>
<linearGradient id="paint0_linear_10_117" x1="0" y1="45" x2="45" y2="45" gradientUnits="userSpaceOnUse">
<stop stop-color="#73E0A9"/>
<stop offset="1" stop-color="#5B68DF"/>
</linearGradient>
</defs>
</svg>
