<svg width="45" height="45" viewBox="0 0 45 45" fill="none" xmlns="http://www.w3.org/2000/svg">
<rect width="45" height="45" rx="8" fill="url(#paint0_linear_10_114)"/>
<path d="M21.6791 20.57C18.7348 20.4279 16.6882 21.4777 15.5393 23.7192C13.816 27.0815 15.2403 32.5833 20.9895 32.5833C26.7388 32.5833 26.9052 27.0277 26.9052 26.4457C26.9052 26.0577 26.9052 23.8882 26.9052 19.9373C28.1349 20.7162 29.1716 21.185 30.0155 21.3438C30.8594 21.5027 31.3959 21.5731 31.625 21.555V18.3171C30.8444 18.223 30.1694 18.0437 29.6 17.7791C28.7458 17.3821 27.052 16.2806 27.052 14.666C27.0532 14.6739 27.0532 14.2575 27.052 13.4166H23.493C23.4824 21.3247 23.4824 25.6677 23.493 26.4457C23.5089 27.6127 22.6035 29.2452 20.7679 29.2452C18.9323 29.2452 18.0269 27.6141 18.0269 26.5619C18.0269 25.9178 18.2481 24.9842 19.1627 24.2929C19.705 23.8829 20.4577 23.7192 21.6791 23.7192C21.6791 23.3414 21.6791 22.2917 21.6791 20.57Z" stroke="white" stroke-width="1.5" stroke-linejoin="round"/>
<defs>
<linearGradient id="paint0_linear_10_114" x1="0" y1="45" x2="45" y2="45" gradientUnits="userSpaceOnUse">
<stop stop-color="#73E0A9"/>
<stop offset="1" stop-color="#5B68DF"/>
</linearGradient>
</defs>
</svg>
